<svg width="169" height="176" viewBox="0 0 169 176" fill="none" xmlns="http://www.w3.org/2000/svg">
<rect x="16.3635" y="25.3076" width="95.378" height="132.228" rx="47.689" fill="#F8CEEE" stroke="black"/>
<circle cx="64.0521" cy="14.414" r="9.8937" fill="#F8CEEE" stroke="black"/>
<circle cx="64.0521" cy="153.312" r="21.2323" fill="#F8CEEE" stroke="black"/>
<circle cx="65.9424" cy="11.5794" r="4.22441" fill="#F8CEEE" stroke="black"/>
<rect x="1.24536" y="108.457" width="124.669" height="49.0787" rx="12.7283" fill="#F8CEEE" stroke="black"/>
<rect x="1.24536" y="130.19" width="124.669" height="27.3465" rx="12.7283" fill="#F8CEEE" stroke="black"/>
<path d="M116.258 55.3152L116.158 55.6967L116.506 55.883L148.262 72.8578L113.415 63.7854L113.034 63.6855L112.849 64.0335L95.8728 95.7896L104.946 60.9429L105.045 60.5611L104.697 60.3757L72.9401 43.3996L107.788 52.4733L108.169 52.5722L108.356 52.2246L125.331 20.4673L116.258 55.3152Z" fill="#F8CEEE" stroke="black"/>
</svg>
